<svg version="1" xmlns="http://www.w3.org/2000/svg" width="4320" height="4320" viewBox="0 0 3240.000000 3240.000000"><path d="M1513.4 546.7c.3 1 30.9 107.3 68.1 236.3 37.2 129 70.5 244.4 74 256.5 3.5 12.1 30 104.1 59 204.5s55.1 191 58.1 201.5c3 10.4 31.4 108.8 63 218.5 31.7 109.7 58.8 203.5 60.2 208.4l2.7 8.9 196.9-382.9c108.3-210.6 198.6-386.1 200.6-389.9 10.6-20.1 34.2-66.7 33.9-66.9-.4-.4-232.5-141.5-262.4-159.6-8.8-5.3-132.1-80.2-274-166.5s-263.1-159.9-269.3-163.7c-7.8-4.7-11.2-6.3-10.8-5.1zM1403.4 554.2c-.9 1.8-10.9 19.5-22.2 39.3-44.7 78.6-144.2 253.2-163.5 287.1-11.2 19.7-49.9 87.6-85.9 150.9-101.2 177.8-117.2 205.9-160.3 281.5-22.1 38.8-59 103.6-82 144-23 40.4-59.9 105.2-82 144s-58.9 103.3-81.7 143.5c-22.9 40.1-61.4 107.9-85.7 150.5l-44.1 77.4 2.7 1.5c5.7 2.9 893.1 470.1 1318.7 694.2 80.3 42.3 146.1 76.8 146.2 76.6.2-.2-8.2-28.6-18.5-63.2-10.4-34.7-54.9-183.2-98.9-330-93-310.2-179.4-598.4-311.6-1039.5-52-173.5-124.6-415.7-161.3-538.2-36.8-122.5-67.1-222.8-67.5-222.8-.4 0-1.5 1.5-2.4 3.2z"/></svg>